<svg viewBox="0 0 20 20" xmlns="http://www.w3.org/2000/svg">
<path d="M4.24556 0.183058C4.48963 -0.0610194 4.88536 -0.0610194 5.12944 0.183058L9.10691 4.16053C9.35099 4.40461 9.35099 4.80034 9.10691 5.04442C8.86284 5.2885 8.46711 5.2885 8.22303 5.04442L5.308 2.12938L5.30798 2.13278C5.29763 4.37663 5.28982 6.0683 5.53802 7.5261C5.82889 9.23448 6.47133 10.5953 7.94078 12.0569C9.41875 13.527 10.7109 14.1652 12.3734 14.4562C13.8095 14.7077 15.5073 14.7009 17.8606 14.6914C17.8637 14.6914 17.8669 14.6914 17.87 14.6914L14.9556 11.777C14.7115 11.5329 14.7115 11.1372 14.9556 10.8931C15.1997 10.649 15.5954 10.649 15.8395 10.8931L19.817 14.8706C20.061 15.1146 20.061 15.5104 19.817 15.7544L15.8395 19.7319C15.5954 19.976 15.1997 19.976 14.9556 19.7319C14.7115 19.4878 14.7115 19.0921 14.9556 18.848L17.8618 15.9418C15.5287 15.952 13.7049 15.9584 12.1579 15.6875C10.2266 15.3494 8.70629 14.5814 7.05927 12.9431C5.40373 11.2964 4.63991 9.69852 4.30576 7.7359C4.03967 6.17303 4.04653 4.36171 4.05752 2.13887L1.15196 5.04442C0.907886 5.2885 0.512158 5.2885 0.26808 5.04442C0.0240026 4.80034 0.0240026 4.40461 0.26808 4.16053L4.24556 0.183058Z"/>
</svg>
