<svg viewBox="0 0 20 20" xmlns="http://www.w3.org/2000/svg">
<path d="M19 11C19 11.5523 16.7614 12 14 12C11.2386 12 9 11.5523 9 11C9 10.4477 11.2386 10 14 10C16.7614 10 19 10.4477 19 11Z" fill="#D9D9D9"/>
<path d="M18.2236 11.5354L18.2215 11.5361C17.3342 11.815 15.7751 12 14 12C12.2249 12 10.6658 11.815 9.77854 11.5361L9.77636 11.5354C9.28473 11.3806 9 11.197 9 11C9 10.803 9.28473 10.6194 9.77636 10.4646L9.77846 10.4639C10.6657 10.185 12.2249 10 14 10C15.7751 10 17.3342 10.185 18.2215 10.4639L18.2236 10.4646C18.7153 10.6194 19 10.803 19 11C19 11.197 18.7153 11.3806 18.2236 11.5354Z" fill="#5F6B7C"/>
<path d="M17.7317 12.6877C18.2015 12.5937 18.6453 12.4716 19 12.3093V15C19 15.197 18.7153 15.3806 18.2236 15.5354L18.2215 15.5361C17.3342 15.815 15.7751 16 14 16C12.2249 16 10.6658 15.815 9.77854 15.5361L9.77636 15.5354C9.28473 15.3806 9 15.197 9 15V12.3093C9.35475 12.4716 9.79855 12.5937 10.2684 12.6877C11.2552 12.8851 12.574 13 14 13C15.426 13 16.7448 12.8851 17.7317 12.6877Z" fill="#5F6B7C"/>
<path d="M9 16.3093V19C9 19.5523 11.2386 20 14 20C16.7614 20 19 19.5523 19 19V16.3093C18.6453 16.4716 18.2015 16.5937 17.7317 16.6877C16.7448 16.8851 15.426 17 14 17C12.574 17 11.2552 16.8851 10.2684 16.6877C9.79855 16.5937 9.35475 16.4716 9 16.3093Z" fill="#5F6B7C"/>
<path d="M14.784 4.0216C14.856 4.0108 14.928 4 15 4C17.76 4 20 6.24 20 9C20 9.46903 19.9353 9.92304 19.8144 10.3536C19.7462 10.2429 19.6683 10.1526 19.5974 10.0833C19.42 9.90999 19.2121 9.7907 19.0345 9.70673C18.6743 9.53637 18.2168 9.40935 17.7317 9.31231C16.7448 9.11495 15.426 9 14 9C12.574 9 11.2552 9.11495 10.2683 9.31231C9.78317 9.40935 9.32572 9.53637 8.96545 9.70673C8.78786 9.7907 8.57995 9.90999 8.40261 10.0833C8.22361 10.2583 8 10.5673 8 11V14H4C1.79 14 0 12.21 0 10C0 8.13 1.28 6.58 3.01 6.14C3.01 6.115 3.0075 6.0925 3.005 6.07C3.0025 6.0475 3 6.025 3 6C3 2.69 5.69 0 9 0C11.62 0 13.83 1.69 14.64 4.04C14.688 4.036 14.736 4.0288 14.784 4.0216Z" fill="#5F6B7C"/>
</svg>
