<svg viewBox="0 0 20 20" xmlns="http://www.w3.org/2000/svg">
<path d="M20 2C20 1.45 19.55 1 19 1H6C5.45 1 5 1.45 5 2C5 2.28 5.11 2.53 5.29 2.71L10 7.41V16C10 16.55 10.45 17 11 17C11.28 17 11.53 16.89 11.71 16.71L14.71 13.71C14.89 13.53 15 13.28 15 13V7.41L19.71 2.7C19.89 2.53 20 2.28 20 2Z" />
<path d="M4.71 19.71C4.53 19.89 4.28 20 4 20C3.72 20 3.47 19.89 3.29 19.71L0.29 16.71C0.11 16.53 0 16.28 0 16C0 15.45 0.45 15 1 15C1.28 15 1.53 15.11 1.71 15.29L3 16.59V11C3 10.45 3.45 10 4 10C4.55 10 5 10.45 5 11V16.59L6.29 15.3C6.47 15.11 6.72 15 7 15C7.55 15 8 15.45 8 16C8 16.28 7.89 16.53 7.71 16.71L4.71 19.71Z" />
</svg>
