<svg viewBox="0 0 20 20" xmlns="http://www.w3.org/2000/svg">
<path d="M1.70672 9.58985C1.44619 9.89158 1.46272 10.3432 1.7446 10.6251L6.07062 14.9511C6.36776 15.2483 6.36776 15.73 6.07063 16.0271C5.77349 16.3243 5.29173 16.3243 4.99459 16.0272L0.668574 11.7012C-0.177075 10.8555 -0.226662 9.50054 0.554914 8.59535L3.8704 4.75547H2.48913C2.06891 4.75547 1.72826 4.41482 1.72826 3.9946C1.72826 3.57439 2.06891 3.23373 2.48913 3.23373H5.53261C5.95283 3.23373 6.29348 3.57439 6.29348 3.9946V7.03808C6.29348 7.4583 5.95283 7.79895 5.53261 7.79895C5.11239 7.79895 4.77174 7.4583 4.77174 7.03808V6.04006L1.70672 9.58985Z" />
<path d="M19.1161 9.11612C19.6043 9.60428 19.6043 10.3957 19.1161 10.8839L13.8128 16.1872C13.3247 16.6753 12.5332 16.6753 12.045 16.1872L6.74175 10.8839C6.25359 10.3957 6.25359 9.60428 6.74175 9.11612L12.045 3.81282C12.5332 3.32467 13.3247 3.32467 13.8128 3.81282L19.1161 9.11612Z" />
</svg>
