<svg viewBox="0 0 20 20" xmlns="http://www.w3.org/2000/svg">
<path d="M18.2933 9.58985C18.5538 9.89158 18.5373 10.3432 18.2554 10.6251L13.9294 14.9511C13.6322 15.2483 13.6322 15.73 13.9294 16.0271C14.2265 16.3243 14.7082 16.3243 15.0054 16.0272L19.3314 11.7012C20.1771 10.8555 20.2266 9.50054 19.4451 8.59535L16.1296 4.75547H17.5108C17.9311 4.75547 18.2717 4.41482 18.2717 3.9946C18.2717 3.57439 17.9311 3.23373 17.5108 3.23373H14.4674C14.0472 3.23373 13.7065 3.57439 13.7065 3.9946V7.03808C13.7065 7.4583 14.0472 7.79895 14.4674 7.79895C14.8876 7.79895 15.2282 7.4583 15.2282 7.03808V6.04006L18.2933 9.58985Z" />
<path d="M12.8661 9.11612C13.3542 9.60428 13.3542 10.3957 12.8661 10.8839L7.56279 16.1872C7.07464 16.6753 6.28318 16.6753 5.79503 16.1872L0.491727 10.8839C0.00357153 10.3957 0.00357153 9.60428 0.491727 9.11612L5.79503 3.81282C6.28318 3.32467 7.07464 3.32467 7.56279 3.81282L12.8661 9.11612Z" />
</svg>
