<svg xmlns="http://www.w3.org/2000/svg" viewBox="0 0 20 20">
  <path d="M15 1c0-.552292.4478-1 1-1s1 .447708 1 1v2h2c.5522 0 1 .44771 1 1s-.4478 1-1 1h-2v2c0 .55229-.4478 1-1 1s-1-.44771-1-1V5h-2c-.5522 0-1-.44771-1-1s.4478-1 1-1h2V1Z"/>
  <path d="M19 7v11c0 .5523-.4478 1-1 1H1c-.552246 0-1-.4477-1-1V2c0-.5.399902-1 1-1h12c-1.6567 0-3 1.34314-3 3 0 .76836.2888 1.46924.7639 2H8v3h5.7639c.5493.61375 1.3477 1 2.2361 1 .3506 0 .6873-.06015 1-.17072.0264-.0093.0525-.01898.0784-.029.03-.01155.0598-.02356.0893-.03603C18.2444 9.30882 19 8.24265 19 7Zm-3 3H8v3h9v-3h-1ZM7 9V6H2v3h5Zm-5 1v3h5v-3H2Zm0 4v3h5v-3H2Zm15 0H8v3h9v-3Z"/>
</svg>
