<svg xmlns="http://www.w3.org/2000/svg" viewBox="0 0 20 20">
  <path d="M16 0c-.5522 0-1 .447708-1 1v2h-2c-.5522 0-1 .44771-1 1s.4478 1 1 1h2v2c0 .55229.4478 1 1 1s1-.44771 1-1V5h2c.5522 0 1-.44771 1-1s-.4478-1-1-1h-2V1c0-.552292-.4478-1-1-1Z"/>
  <path d="M17.1677 9.76425C18.2444 9.30882 19 8.24265 19 7v11c0 .5523-.4478 1-1 1H1c-.552246 0-1-.4477-1-1V2c0-.5.399902-1 1-1h12c-1.6567 0-3 1.34314-3 3 0 .76836.2888 1.46924.7639 2H2v3h11.7639c.5493.61375 1.3477 1 2.2361 1H2v3h15v-3h-1c.3506 0 .6873-.06015 1-.17072.0264-.0093.0525-.01898.0784-.029.03-.01155.0598-.02356.0893-.03603ZM2 14v3h15v-3H2Z"/>
</svg>
