<svg xmlns="http://www.w3.org/2000/svg" viewBox="0 0 20 20">
  <path d="M15 1c0-.552285.4477-1 1-1s1 .447715 1 1v2h2c.5523 0 1 .44772 1 1s-.4477 1-1 1h-2v2c0 .55228-.4477 1-1 1s-1-.44772-1-1V5h-2c-.5523 0-1-.44772-1-1s.4477-1 1-1h2V1Z"/>
  <path d="M1 1h12c-1.6567 0-3 1.34315-3 3 0 .76836.2888 1.46925.7639 2H2v11h15V9.82928C18.165 9.41743 19 8.3062 19 7v11c0 .5523-.4478 1-1 1H1c-.552246 0-1-.4477-1-1V2c0-.5.399902-1 1-1Z"/>
  <path d="M3 8c0-.55229.44775-1 1-1h5c.55225 0 1 .44771 1 1s-.44775 1-1 1H6.41431l5.29269 5.2928c.3907.3905.3907 1.0237 0 1.4142-.3906.3906-1.0237.3906-1.4143 0L5 10.4143V13c0 .5523-.44775 1-1 1s-1-.4477-1-1V8Z"/>
</svg>
