<svg viewBox="0 0 16 16" xmlns="http://www.w3.org/2000/svg">
<path d="M12 4C11.97 4 11.93 4 11.9 4.01C11.44 1.72 9.42 0 7 0C4.24 0 2 2.24 2 5C2 5.11 2.01 5.22 2.02 5.33C0.83 5.89 0 7.1 0 8.5C0 10.43 1.57 12 3.5 12H7V9C7 8.29011 7.55131 7.90013 7.80551 7.74988C8.12664 7.56007 8.52475 7.42381 8.92904 7.32274C9.753 7.11675 10.8383 7 12 7C13.1617 7 14.247 7.11675 15.071 7.32274C15.3908 7.4027 15.7068 7.50468 15.9838 7.63778C15.8009 5.59768 14.0879 4 12 4Z" fill="#5F6B7C"/>
<path d="M12 10.5C13.1331 10.5 14.1758 10.3857 14.9497 10.1922C15.3328 10.0964 15.6783 9.9744 15.9401 9.81968C15.9594 9.80826 15.9795 9.79594 16 9.78269V12C16 12.5523 14.2091 13 12 13C9.79086 13 8 12.5523 8 12V9.78269C8.02054 9.79594 8.0406 9.80826 8.05993 9.81968C8.32169 9.9744 8.6672 10.0964 9.05031 10.1922C9.82421 10.3857 10.8669 10.5 12 10.5Z" fill="#5F6B7C"/>
<path d="M15.9401 12.8197C15.9594 12.8083 15.9795 12.7959 16 12.7827V15C16 15.5523 14.2091 16 12 16C9.79086 16 8 15.5523 8 15V12.7827C8.02054 12.7959 8.0406 12.8083 8.05993 12.8197C8.32169 12.9744 8.6672 13.0964 9.05031 13.1922C9.82421 13.3857 10.8669 13.5 12 13.5C13.1331 13.5 14.1758 13.3857 14.9497 13.1922C15.3328 13.0964 15.6783 12.9744 15.9401 12.8197Z" fill="#5F6B7C"/>
<path d="M8 9C8 9.55228 9.79086 10 12 10C14.2091 10 16 9.55228 16 9C16 8.44772 14.2091 8 12 8C9.79086 8 8 8.44772 8 9Z" fill="#5F6B7C"/>
</svg>
