<svg viewBox="0 0 16 16" xmlns="http://www.w3.org/2000/svg">
<path d="M16 2C16 2.28 15.89 2.53 15.71 2.7L12 6.41V10C12 10.28 11.89 10.53 11.71 10.71L9.71 12.71C9.53 12.89 9.28 13 9 13C8.45 13 8 12.55 8 12V6.41L4.29 2.71C4.11 2.53 4 2.28 4 2C4 1.45 4.45 1 5 1H15C15.55 1 16 1.45 16 2Z" />
<path d="M5 11.9951C4.72 11.9951 4.47 12.105 4.29 12.2848L4 12.5744V8.99887C4 8.44956 3.55 8.00012 3 8.00012C2.45 8.00012 2 8.44956 2 8.99887V12.5844L1.71 12.2948C1.53 12.115 1.28 12.0051 1 12.0051C0.45 12.0051 0 12.4546 0 13.0039C0 13.2835 0.11 13.5332 0.29 13.713L2.29 15.7105C2.47 15.8903 2.72 16.0001 3 16.0001C3.28 16.0001 3.53 15.8903 3.71 15.7105L5.71 13.713C5.89 13.5332 6 13.2835 6 13.0039C6 12.4446 5.55 11.9951 5 11.9951Z" />
</svg>
