<svg viewBox="0 0 16 16" xmlns="http://www.w3.org/2000/svg">
<path d="M1 0C0.447715 0 0 0.447715 0 1V4H2V2L4 2V0H1Z"/>
<path d="M0 15V12H2L2 14H4V16H1C0.447715 16 0 15.5523 0 15Z"/>
<path d="M15 16H12V14H14V12H16V15C16 15.5523 15.5523 16 15 16Z"/>
<path d="M16 1V4H14V2H12V0H15C15.5523 0 16 0.447715 16 1Z"/>
<path d="M7.99994 7L12.4999 4.5L8.39191 2.09313C8.17461 1.96896 7.84856 1.96896 7.63125 2.09313L3.57001 4.39445L7.99994 7Z"/>
<path d="M12.9547 5C12.9807 5.074 12.9945 5.15284 12.9945 5.23366V10.068C12.9945 10.3217 12.8585 10.5559 12.6383 10.6817L8.39999 13V7.84671L12.9547 5Z"/>
<path d="M7.59447 7.7428L3.03973 4.99969C3.0138 5.07369 3 5.22747 3 5.30829V9.96409C3 10.2177 3.13592 10.452 3.35615 10.5778L7.59447 12.9997V7.7428Z"/>
</svg>
