<svg viewBox="0 0 16 16" xmlns="http://www.w3.org/2000/svg">
<path d="M14.6346 7.67187C14.8431 7.91326 14.8298 8.27458 14.6043 8.50009L11.1435 11.9609C10.9058 12.1986 10.9058 12.584 11.1435 12.8217C11.3812 13.0594 11.7666 13.0594 12.0043 12.8217L15.4652 9.36092C16.1417 8.6844 16.1813 7.60042 15.5561 6.87627L12.9037 3.80437H14.0087C14.3449 3.80437 14.6174 3.53184 14.6174 3.19567C14.6174 2.8595 14.3449 2.58698 14.0087 2.58698H11.5739C11.2378 2.58698 10.9652 2.8595 10.9652 3.19567V5.63045C10.9652 5.96663 11.2378 6.23915 11.5739 6.23915C11.9101 6.23915 12.1826 5.96663 12.1826 5.63045V4.83203L14.6346 7.67187Z"/>
<path d="M10.2929 7.29289C10.6834 7.68341 10.6834 8.31658 10.2929 8.7071L6.05027 12.9497C5.65975 13.3403 5.02658 13.3403 4.63606 12.9497L0.393418 8.7071C0.00289384 8.31658 0.00289384 7.68341 0.393418 7.29289L4.63606 3.05025C5.02658 2.65972 5.65975 2.65972 6.05027 3.05025L10.2929 7.29289Z"/>
</svg>
