<svg viewBox="0 0 16 16" xmlns="http://www.w3.org/2000/svg">
<path d="M1.36537 7.67187C1.15695 7.91326 1.17018 8.27458 1.39568 8.50009L4.8565 11.9609C5.09421 12.1986 5.09421 12.584 4.8565 12.8217C4.61879 13.0594 4.23339 13.0594 3.99568 12.8217L0.534859 9.36092C-0.14166 8.6844 -0.18133 7.60042 0.443931 6.87627L3.09632 3.80437H1.9913C1.65513 3.80437 1.38261 3.53184 1.38261 3.19567C1.38261 2.8595 1.65513 2.58698 1.9913 2.58698H4.42609C4.76226 2.58698 5.03478 2.8595 5.03478 3.19567V5.63045C5.03478 5.96663 4.76226 6.23915 4.42609 6.23915C4.08991 6.23915 3.81739 5.96663 3.81739 5.63045V4.83203L1.36537 7.67187Z"/>
<path d="M15.2929 7.29289C15.6834 7.68341 15.6834 8.31658 15.2929 8.7071L11.0503 12.9497C10.6597 13.3403 10.0266 13.3403 9.63604 12.9497L5.3934 8.7071C5.00287 8.31658 5.00287 7.68341 5.3934 7.29289L9.63604 3.05025C10.0266 2.65972 10.6597 2.65972 11.0503 3.05025L15.2929 7.29289Z"/>
</svg>
