<svg xmlns="http://www.w3.org/2000/svg" viewBox="0 0 16 16">
  <path d="M13 0c-.5523 0-1 .447715-1 1v1h-1c-.5523 0-1 .44772-1 1s.4477 1 1 1h1v1c0 .55228.4477 1 1 1s1-.44772 1-1V4h1c.5523 0 1-.44772 1-1s-.4477-1-1-1h-1V1c0-.552285-.4477-1-1-1Z"/>
  <path d="M8.76391 5H7v2h3.7639c.5493.61375 1.3476 1 2.2361 1 1.3538 0 2.4982-.89671 2.8715-2.12857.0433-.01311.0861-.02717.1285-.04216V14c0 .6-.4 1-1 1H1c-.6 0-1-.4-1-1V2c0-.5.4-1 1-1h7.76388C8.28885 1.53075 8 2.23163 8 2.99998 8 3.76835 8.28886 4.46924 8.76391 5ZM6 5H2v2h4V5Zm0 3H2v2h4V8Zm1 2h7V8H7v2Zm-1 1H2v2h4v-2Zm1 2h7v-2H7v2Z"/>
</svg>
