<svg xmlns="http://www.w3.org/2000/svg" viewBox="0 0 16 16">
  <path d="M12 1c0-.552285.4477-1 1-1s1 .447715 1 1v1h1c.5523 0 1 .44772 1 1s-.4477 1-1 1h-1v1c0 .55228-.4477 1-1 1s-1-.44772-1-1V4h-1c-.5523 0-1-.44772-1-1s.4477-1 1-1h1V1ZM8 2.99998C8 3.76835 8.28886 4.46924 8.76391 5H2v2h8.7639c.5493.61375 1.3476 1 2.2361 1H2v2h12V8h-1c1.3538 0 2.4982-.89671 2.8715-2.12857.0433-.01311.0861-.02717.1285-.04216V14c0 .6-.4 1-1 1H1c-.6 0-1-.4-1-1V2c0-.5.4-1 1-1h7.76388C8.28885 1.53075 8 2.23163 8 2.99998ZM7 13h7v-2H2v2h5Z"/>
</svg>
