<svg xmlns="http://www.w3.org/2000/svg" viewBox="0 0 16 16">
  <path d="M12 1c0-.207109.063-.399512.1708-.559113C12.3505.174886 12.6548 0 13 0c.5523 0 1 .447715 1 1v1h1c.1838 0 .3561.04961.5041.13617.1299.07597.2411.18039.3251.30472.1078.1596.1708.352.1708.55911 0 .21962-.0708.42271-.1908.58768-.0875.12024-.2011.22024-.3326.29163C15.3349 3.95628 15.1726 4 15 4h-1v1c0 .20711-.063.39951-.1708.55911-.0825.12217-.1914.22512-.3184.30073C13.3613 5.94887 13.1866 6 13 6c-.1381 0-.2696-.02798-.3892-.07858-.1673-.07077-.3114-.18577-.4175-.33035C12.0718 5.4255 12 5.22113 12 5V4h-1c-.1725 0-.3348-.04368-.4765-.12059-.1417-.07698-.2628-.18724-.3527-.3203C10.063 3.39951 10 3.20711 10 3c0-.22715.0757-.43661.2033-.6045.1051-.13828.2454-.24836.4075-.31692C10.7304 2.02798 10.8619 2 11 2h1V1Zm2 6.82928c.8948-.31628 1.5947-1.04505 1.8716-1.95785.0432-.01311.0859-.02716.1284-.04216V14c0 .6-.3999 1-1 1H1c-.552246 0-1-.4477-1-1V2c0-.5.399902-1 1-1h7.76392C8.28882 1.53075 8 2.23163 8 2.99998 8 3.76834 8.28882 4.46924 8.76392 5H2v8h12V7.82928ZM7.3606 11.7205 5 9.36267V10c0 .5523-.44775 1-1 1s-1-.4477-1-1V7c0-.55229.44775-1 1-1h3c.55225 0 1 .44771 1 1s-.44775 1-1 1h-.64478l2.36499 2.3624c.3733.373.37305.9838-.00097 1.3572-.37378.3735-.98535.3739-1.35864.0009Z"/>
</svg>
